<?xml version="1.0" encoding="UTF-8"?> <svg xmlns="http://www.w3.org/2000/svg" viewBox="0 0 75.17 62.42"><defs><style>.cls-1{fill:#666;}.cls-2{fill:#c90016;}</style></defs><g id="Capa_2" data-name="Capa 2"><g id="Capa_1-2" data-name="Capa 1"><path class="cls-1" d="M0,57.71H.91v.64h0A1.24,1.24,0,0,1,2,57.61a.69.69,0,0,1,.2,0v.89a1.72,1.72,0,0,0-.34,0C1.2,58.5,1,59,1,59.62v1.57H0Z"></path><path class="cls-1" d="M3.27,59.68c0,.61.32.88.85.88a.78.78,0,0,0,.76-.45h.84a1.57,1.57,0,0,1-1.63,1.18,1.71,1.71,0,0,1-1.78-1.84,1.75,1.75,0,1,1,3.47.23Zm1.56-.61c-.09-.48-.3-.74-.77-.74a.75.75,0,0,0-.79.74Z"></path><path class="cls-1" d="M7.07,60.06c0,.42.36.58.73.58s.63-.1.63-.44-.39-.39-1.08-.54-1.11-.32-1.11-.93c0-.89.77-1.12,1.52-1.12s1.46.26,1.53,1.11H8.38c0-.37-.31-.47-.65-.47s-.53,0-.53.32.54.4,1.09.52,1.1.33,1.1,1c0,.92-.8,1.22-1.59,1.22S6.2,61,6.16,60.06Z"></path><path class="cls-1" d="M11.14,57.71h.7v.63h-.7v1.73c0,.33.08.41.41.41a1.43,1.43,0,0,0,.29,0v.75a4.86,4.86,0,0,1-.56,0c-.58,0-1.1-.13-1.1-.83V58.34H9.61v-.63h.57V56.66h1Z"></path><path class="cls-1" d="M12.24,58.78c0-.9.86-1.17,1.64-1.17s1.53.16,1.53,1v1.82a1.74,1.74,0,0,0,.12.77h-1a1.86,1.86,0,0,1-.07-.34,1.59,1.59,0,0,1-1.17.44c-.66,0-1.19-.33-1.19-1s.6-1,1.19-1.06,1.13-.07,1.13-.46-.28-.47-.62-.47-.6.15-.63.53Zm2.21.71c-.16.14-.5.14-.79.2s-.57.16-.57.51.28.44.59.44a.7.7,0,0,0,.77-.8Z"></path><path class="cls-1" d="M19.4,61.19h-.91v-.48h0a1.24,1.24,0,0,1-1.07.58c-1,0-1.27-.58-1.27-1.44V57.71h1v2c0,.58.17.86.61.86s.74-.29.74-1V57.71h1Z"></path><path class="cls-1" d="M20.11,57.71H21v.64h0a1.24,1.24,0,0,1,1.11-.74.71.71,0,0,1,.21,0v.89a1.72,1.72,0,0,0-.34,0c-.7,0-1,.51-1,1.12v1.57h-.95Z"></path><path class="cls-1" d="M22.67,58.78c0-.9.86-1.17,1.64-1.17s1.53.16,1.53,1v1.82a1.74,1.74,0,0,0,.12.77H25a1.86,1.86,0,0,1-.07-.34,1.59,1.59,0,0,1-1.17.44c-.66,0-1.19-.33-1.19-1s.59-1,1.19-1.06,1.13-.07,1.13-.46-.28-.47-.62-.47-.6.15-.63.53Zm2.21.71c-.16.14-.5.14-.79.2s-.57.16-.57.51.28.44.59.44a.71.71,0,0,0,.77-.8Z"></path><path class="cls-1" d="M26.56,57.71h.91v.48h0a1.24,1.24,0,0,1,1.06-.58c1,0,1.28.57,1.28,1.44v2.14h-1v-2c0-.57-.17-.85-.61-.85s-.74.29-.74,1v1.83h-1Z"></path><path class="cls-1" d="M31.75,57.71h.7v.63h-.7v1.73c0,.33.08.41.41.41a1.43,1.43,0,0,0,.29,0v.75a4.86,4.86,0,0,1-.56,0c-.59,0-1.1-.13-1.1-.83V58.34h-.58v-.63h.58V56.66h1Z"></path><path class="cls-1" d="M33.68,59.68c0,.61.32.88.86.88a.78.78,0,0,0,.75-.45h.84a1.57,1.57,0,0,1-1.63,1.18,1.71,1.71,0,0,1-1.78-1.84,1.75,1.75,0,1,1,3.47.23Zm1.56-.61c-.09-.48-.3-.74-.77-.74a.75.75,0,0,0-.79.74Z"></path><path class="cls-2" d="M43,61.19H42l-.62-2.34h0l-.6,2.34h-1l-1.1-3.48h1l.64,2.36h0l.58-2.36h.93l.59,2.35h0l.64-2.35h1Z"></path><path class="cls-2" d="M44.6,58.78c.06-.9.86-1.17,1.64-1.17s1.53.16,1.53,1v1.82a1.74,1.74,0,0,0,.12.77h-1a1.86,1.86,0,0,1-.07-.34,1.57,1.57,0,0,1-1.17.44c-.66,0-1.19-.33-1.19-1s.6-1,1.19-1.06,1.13-.07,1.13-.46-.28-.47-.62-.47-.6.15-.63.53Zm2.21.71c-.16.14-.5.14-.79.2s-.57.16-.57.51.28.44.59.44a.7.7,0,0,0,.77-.8Z"></path><path class="cls-2" d="M48.85,57.71h.91v.64h0a1.24,1.24,0,0,1,1.11-.74.71.71,0,0,1,.21,0v.89a1.65,1.65,0,0,0-.34,0c-.7,0-.94.51-.94,1.12v1.57h-1Z"></path><path class="cls-2" d="M53.73,61.63a1.1,1.1,0,0,1-1.2.79c-.19,0-.39,0-.59,0v-.79a5.09,5.09,0,0,0,.56,0,.46.46,0,0,0,.33-.66l-1.22-3.26h1l.79,2.38h0l.77-2.38h1Z"></path><path class="cls-2" d="M55.74,57.71h.91v.48h0a1.24,1.24,0,0,1,1.06-.58c1,0,1.28.57,1.28,1.44v2.14h-1v-2c0-.57-.17-.85-.61-.85s-.74.29-.74,1v1.83h-1Z"></path><path class="cls-2" d="M60.66,59.68c0,.61.32.88.86.88a.78.78,0,0,0,.75-.45h.84a1.57,1.57,0,0,1-1.63,1.18,1.71,1.71,0,0,1-1.78-1.84,1.75,1.75,0,1,1,3.47.23Zm1.56-.61c-.09-.48-.3-.74-.76-.74a.75.75,0,0,0-.8.74Z"></path><path class="cls-2" d="M64.82,60.06c0,.42.36.58.73.58s.63-.1.63-.44-.4-.39-1.08-.54S64,59.34,64,58.73c0-.89.77-1.12,1.52-1.12S67,57.87,67,58.72h-.91c0-.37-.31-.47-.65-.47s-.53,0-.53.32.54.4,1.08.52,1.11.33,1.11,1c0,.92-.8,1.22-1.59,1.22S64,61,63.91,60.06Z"></path><path class="cls-2" d="M68.78,60.06c0,.42.35.58.73.58s.63-.1.63-.44-.4-.39-1.09-.54-1.1-.32-1.1-.93c0-.89.76-1.12,1.51-1.12s1.47.26,1.54,1.11h-.91c0-.37-.31-.47-.65-.47s-.54,0-.54.32.54.4,1.09.52,1.11.33,1.11,1c0,.92-.8,1.22-1.6,1.22s-1.59-.31-1.63-1.23Z"></path><path class="cls-2" d="M73.71,61.63a1.1,1.1,0,0,1-1.2.79,5.46,5.46,0,0,1-.58,0v-.79a4.91,4.91,0,0,0,.55,0,.46.46,0,0,0,.33-.66l-1.22-3.26h1l.79,2.38h0l.77-2.38h1Z"></path><path class="cls-2" d="M57.44,44.85H44.77l-8-30.1h-.17L29,44.85H16.23L2,0H15l8.24,30.45h.17L30.89,0h12l7.63,30.36h.18L58.91,0H71.58Z"></path></g></g></svg> 