<?xml version="1.0" encoding="UTF-8"?> <svg xmlns="http://www.w3.org/2000/svg" viewBox="0 0 63.48 53.11"><defs><style>.cls-1{fill:#212121;}.cls-2{fill:#c90016;}</style></defs><g id="Capa_2" data-name="Capa 2"><g id="Capa_1-2" data-name="Capa 1"><path class="cls-1" d="M0,49.1H.77v.56h0A1,1,0,0,1,1.73,49l.18,0v.76a1.29,1.29,0,0,0-.29,0c-.6,0-.81.43-.81.95v1.34H0Z"></path><path class="cls-1" d="M2.78,50.78c0,.52.28.76.73.76a.66.66,0,0,0,.64-.39h.72a1.34,1.34,0,0,1-1.39,1A1.45,1.45,0,0,1,2,50.59a1.49,1.49,0,1,1,3,.19Zm1.33-.51c-.08-.41-.26-.63-.65-.63a.64.64,0,0,0-.68.63Z"></path><path class="cls-1" d="M6,51.11c0,.35.3.5.62.5s.54-.1.54-.38-.34-.34-.93-.46-.94-.27-.94-.79c0-.76.66-1,1.29-1s1.25.22,1.31.95H7.14c0-.31-.27-.4-.56-.4s-.45,0-.45.27.46.34.92.45.94.28.94.83c0,.78-.68,1-1.35,1s-1.36-.26-1.4-1Z"></path><path class="cls-1" d="M9.48,49.1h.6v.55h-.6v1.47c0,.27.07.34.35.34a1.1,1.1,0,0,0,.25,0v.64a3.64,3.64,0,0,1-.48,0c-.5,0-.93-.12-.93-.71V49.65h-.5V49.1h.5v-.88h.81Z"></path><path class="cls-1" d="M10.42,50c0-.77.73-1,1.39-1s1.3.14,1.3.85v1.54a1.43,1.43,0,0,0,.11.66h-.83a1.36,1.36,0,0,1-.06-.29,1.33,1.33,0,0,1-1,.37c-.57,0-1-.28-1-.89s.5-.83,1-.9,1-.06,1-.39-.24-.4-.53-.4-.51.13-.54.45Zm1.88.6a1.58,1.58,0,0,1-.68.17c-.25.05-.48.14-.48.44s.23.38.5.38a.61.61,0,0,0,.66-.69Z"></path><path class="cls-1" d="M16.51,52.07h-.78v-.41h0a1.08,1.08,0,0,1-.91.49c-.86,0-1.08-.49-1.08-1.22V49.1h.81v1.68c0,.49.14.73.52.73s.63-.25.63-.85V49.1h.82Z"></path><path class="cls-1" d="M17.11,49.1h.78v.56h0a1,1,0,0,1,.94-.64l.18,0v.76a1.23,1.23,0,0,0-.29,0c-.6,0-.8.43-.8.95v1.34h-.82Z"></path><path class="cls-1" d="M19.29,50c.05-.77.73-1,1.4-1s1.3.14,1.3.85v1.54a1.6,1.6,0,0,0,.1.66h-.83a1.35,1.35,0,0,1-.05-.29,1.37,1.37,0,0,1-1,.37c-.56,0-1-.28-1-.89s.5-.83,1-.9,1-.06,1-.39-.24-.4-.53-.4-.51.13-.53.45Zm1.88.6a1.49,1.49,0,0,1-.67.17c-.26.05-.49.14-.49.44s.24.38.5.38a.61.61,0,0,0,.66-.69Z"></path><path class="cls-1" d="M22.6,49.1h.78v.42h0a1.06,1.06,0,0,1,.91-.5c.87,0,1.08.49,1.08,1.23v1.82h-.81V50.4c0-.49-.15-.73-.52-.73s-.63.24-.63.85v1.55H22.6Z"></path><path class="cls-1" d="M27,49.1h.6v.55H27v1.47c0,.27.07.34.34.34a1.14,1.14,0,0,0,.26,0v.64a3.64,3.64,0,0,1-.48,0c-.5,0-.94-.12-.94-.71V49.65h-.49V49.1h.49v-.88H27Z"></path><path class="cls-1" d="M28.66,50.78c0,.52.27.76.73.76a.67.67,0,0,0,.64-.39h.72a1.34,1.34,0,0,1-1.39,1,1.45,1.45,0,0,1-1.52-1.56,1.49,1.49,0,1,1,3,.19ZM30,50.27c-.08-.41-.26-.63-.65-.63a.64.64,0,0,0-.68.63Z"></path><path class="cls-2" d="M36.11,52.07h-.84l-.53-2h0l-.5,2h-.85l-.94-3h.86l.55,2h0l.49-2h.8l.5,2h0l.55-2H37Z"></path><path class="cls-2" d="M37.47,50c0-.77.73-1,1.39-1s1.3.14,1.3.85v1.54a1.43,1.43,0,0,0,.11.66h-.83a1.36,1.36,0,0,1-.06-.29,1.33,1.33,0,0,1-1,.37c-.57,0-1-.28-1-.89s.5-.83,1-.9,1-.06,1-.39-.24-.4-.53-.4-.51.13-.54.45Zm1.88.6a1.54,1.54,0,0,1-.68.17c-.25.05-.48.14-.48.44s.24.38.5.38a.61.61,0,0,0,.66-.69Z"></path><path class="cls-2" d="M41.08,49.1h.78v.56h0a1,1,0,0,1,.94-.64l.18,0v.76a1.23,1.23,0,0,0-.29,0c-.6,0-.8.43-.8.95v1.34h-.82Z"></path><path class="cls-2" d="M45.23,52.44a.91.91,0,0,1-1,.67l-.49,0v-.68a2.42,2.42,0,0,0,.47,0,.38.38,0,0,0,.28-.55l-1-2.79h.87l.67,2h0l.65-2h.84Z"></path><path class="cls-2" d="M46.94,49.1h.78v.42h0a1,1,0,0,1,.9-.5c.87,0,1.09.49,1.09,1.23v1.82h-.82V50.4c0-.49-.14-.73-.52-.73s-.63.24-.63.85v1.55h-.82Z"></path><path class="cls-2" d="M51.13,50.78c0,.52.28.76.73.76a.66.66,0,0,0,.64-.39h.72a1.34,1.34,0,0,1-1.39,1,1.45,1.45,0,0,1-1.51-1.56,1.49,1.49,0,1,1,3,.19Zm1.33-.51c-.08-.41-.26-.63-.65-.63a.64.64,0,0,0-.68.63Z"></path><path class="cls-2" d="M54.67,51.11c0,.35.31.5.63.5s.53-.1.53-.38-.34-.34-.92-.46S54,50.5,54,50c0-.76.65-1,1.29-1s1.24.22,1.3.95h-.77c0-.31-.26-.4-.56-.4s-.45,0-.45.27.46.34.92.45.95.28.95.83c0,.78-.68,1-1.36,1s-1.36-.26-1.39-1Z"></path><path class="cls-2" d="M58,51.11c0,.35.3.5.62.5s.54-.1.54-.38-.34-.34-.93-.46-.94-.27-.94-.79c0-.76.66-1,1.29-1s1.25.22,1.31.95h-.77c0-.31-.27-.4-.56-.4s-.45,0-.45.27.46.34.92.45.94.28.94.83c0,.78-.67,1-1.35,1s-1.36-.26-1.4-1Z"></path><path class="cls-2" d="M62.24,52.44a.93.93,0,0,1-1,.67l-.5,0v-.68a2.42,2.42,0,0,0,.47,0,.38.38,0,0,0,.29-.55l-1-2.79h.87l.67,2h0l.64-2h.85Z"></path><path class="cls-1" d="M49.09,38.16H38.31L31.52,12.55h-.15l-6.5,25.61H14L1.92,0H13l7,25.91h.15L26.5,0H36.69l6.49,25.84h.15L50.34,0H61.12Z"></path></g></g></svg> 